<svg viewBox="110 15 380 335" fill="none" xmlns="http://www.w3.org/2000/svg">
  <defs>
    <!-- Top Arc Gradient -->
    <linearGradient id="arcGrad" x1="0" y1="0" x2="1" y2="0">
      <stop offset="0%" stop-color="#7239B3" />
      <stop offset="50%" stop-color="#3B82F6" />
      <stop offset="100%" stop-color="#10B981" />
    </linearGradient>
    <!-- Leaf Gradient -->
    <linearGradient id="leafGrad" x1="0" y1="1" x2="1" y2="0">
      <stop offset="0%" stop-color="#10B981" />
      <stop offset="100%" stop-color="#34D399" />
    </linearGradient>
    <!-- Text / Theme Colors -->
    <style>
      .logo-title {
        font-family: 'Outfit', 'Plus Jakarta Sans', 'Segoe UI', sans-serif;
        font-weight: 700;
        font-size: 38px;
        fill: #264653;
        letter-spacing: 0.5px;
      }
      .logo-title-wellbeing {
        fill: #10B981;
      }
      .logo-tagline {
        font-family: 'Outfit', 'Plus Jakarta Sans', 'Segoe UI', sans-serif;
        font-weight: 500;
        font-size: 13px;
        fill: #264653;
        letter-spacing: 4px;
      }
    </style>
  </defs>

  <!-- LOGO MARK -->
  <g id="logo-mark" transform="translate(185, 20)">
    <!-- Top Arc (Purple-Blue-Green Gradient) -->
    <path d="M 20 90 A 95 95 0 0 1 210 90" stroke="url(#arcGrad)" stroke-width="6" stroke-linecap="round" fill="none"/>
    
    <!-- Central Y-Person Figure -->
    <!-- Head -->
    <circle cx="115" cy="55" r="14" fill="#1E3A8A" />
    <!-- Arms and Torso -->
    <path d="M 64 92 C 78 92 90 102 115 125 C 140 102 152 92 166 92 C 172 92 166 102 150 122 C 135 140 130 162 130 190 H 100 C 100 162 95 140 80 122 C 64 102 58 92 64 92 Z" fill="#1E3A8A" stroke-linejoin="round" />

    <!-- Left T Bar (Blue) -->
    <path d="M 45 78 H 105 V 93 H 85 V 135 C 85 142 82 147 80 148 H 68 V 93 H 45 Z" fill="#2563EB" />

    <!-- Right T Bar (Green) -->
    <path d="M 185 78 H 125 V 93 H 145 V 135 C 145 142 148 147 150 148 H 162 V 93 H 185 Z" fill="#10B981" />

    <!-- Left Cradling Hand (Navy) -->
    <path d="M 20 122 C 16 160 52 208 115 208 C 100 200 68 185 64 165 C 62 157 74 154 84 158 C 94 162 108 178 116 182 C 106 170 94 162 90 150 C 102 158 116 170 120 185" fill="#1E3A8A" stroke="#1E3A8A" stroke-width="2" stroke-linecap="round" stroke-linejoin="round"/>

    <!-- Right Cradling Leaf (Green Gradient) -->
    <path d="M 210 122 C 214 160 178 208 115 208 C 135 198 170 180 170 145 C 170 134 186 130 196 142 C 206 154 208 174 192 195" fill="url(#leafGrad)" />
  </g>

  <!-- TYPOGRAPHY -->
  <text x="300" y="278" text-anchor="middle" class="logo-title">
    TET<tspan class="logo-title-wellbeing">WELLBEING</tspan>GROUP
  </text>

  <!-- Separation Line -->
  <line x1="225" y1="300" x2="375" y2="300" stroke="url(#arcGrad)" stroke-width="2" stroke-linecap="round"/>

  <!-- TAGLINE -->
  <g id="logo-tagline-group" transform="translate(0, 5)">
    <!-- Left Dot -->
    <circle cx="160" cy="328" r="3.5" fill="#7239B3" />
    <!-- Tagline Text -->
    <text x="300" y="333" text-anchor="middle" class="logo-tagline">INNOVATING HUMAN WELLBEING</text>
    <!-- Right Dot -->
    <circle cx="440" cy="328" r="3.5" fill="#10B981" />
  </g>
</svg>
